<svg viewBox="70 180 900 620" version="1.1" xmlns="http://www.w3.org/2000/svg" desc="Created with imagetracer.js version 1.2.6" >
<!-- Masked Grid and Orange Column/Base Framework -->
  <defs>
    <mask id="grid-mask">
      <!-- Everything is white by default (visible) -->
      <rect x="0" y="0" width="1200" height="1000" fill="white" />
      <!-- Hide the vertical column and bottom base by drawing them in black -->
      <!-- Vertical column is roughly X = 153 to 209, Y = 226 to 732 -->
      <rect x="151" y="225" width="60" height="509" fill="black" />
      <!-- Bottom base is roughly X = 153 to 390, Y = 675 to 732 -->
      <rect x="151" y="673" width="240" height="61" fill="black" />
      
      <!-- Crossing grid lines (white in mask to make them black in output) -->
      <!-- Horizontal line at Y = 230 -->
      <rect x="70" y="226" width="300" height="8" fill="white" />
      <!-- Horizontal line at Y = 306 -->
      <rect x="70" y="301" width="150" height="9" fill="white" />
      <!-- Horizontal line at Y = 407 -->
      <rect x="70" y="401" width="150" height="9" fill="white" />
      <!-- Horizontal line at Y = 481.5 -->
      <rect x="70" y="478" width="100" height="8" fill="white" />
      <!-- Horizontal line at Y = 679 -->
      <rect x="70" y="674" width="330" height="9" fill="white" />
      <!-- Horizontal line at Y = 732 -->
      <rect x="70" y="728" width="330" height="8" fill="white" />
      <!-- Vertical line at X = 157 -->
      <rect x="153" y="180" width="8" height="610" fill="white" />
      <!-- Vertical line at X = 209 -->
      <rect x="205" y="180" width="8" height="610" fill="white" />
    </mask>
  </defs>
<!-- Orange underlay for column, base, and grid -->
<path fill="#F7921C" stroke="#F7921C" stroke-width="1" opacity="1" d="M 153 190 Q 156.9 189.5 157 190.5 L 157 216.5 Q 155 217.5 157 218.5 Q 157.7 222.7 156 224.5 L 157.5 226 L 205 226 L 205 190.5 Q 205.1 189.5 209 190 L 209 225.5 L 209.5 226 L 324 226 L 324 190.5 Q 324.1 189.5 328 190 L 328 225.5 L 328.5 226 L 451.5 226 Q 452.3 225.8 452 228.5 L 450.5 230 L 332.5 230 L 331 229.5 Q 330.3 231.8 332.5 231 L 400.5 302 L 586.5 302 Q 587.3 301.8 587 304.5 L 585.5 306 L 405 306.5 L 497.5 403 L 812.5 403 Q 813.5 403.1 813 407 L 227.5 407 L 209 425.5 L 209 675 L 405.5 675 Q 406.5 675.1 406 679 L 389 679 L 389 728 L 958.5 728 Q 959.5 728.1 959 732 L 389.5 732 L 389 732.5 L 389 789.5 Q 388.9 790.5 385 790 L 385 732.5 L 384.5 732 L 209 732 L 209 789.5 Q 208.9 790.5 205 790 L 205 732 L 157 732 L 157 789.5 Q 156.9 790.5 153 790 L 153 732 L 78.5 732 Q 77.5 731.9 78 728 L 151.5 728 L 153 726.5 L 153 679 L 78.5 679 Q 77.5 678.9 78 675 L 153 675 L 153 483.5 L 151.5 482 L 78 481.5 L 150 407.5 L 78 407 Q 77.5 403.1 78.5 403 L 151.5 403 L 153 401.5 L 153 306.5 Q 151.8 303.8 150.5 306 L 78.5 306 Q 77.5 305.9 78 302 L 151.5 302 L 153 300.5 L 153 230.5 L 151.5 229 L 150.5 230 L 78 230 Q 77.5 226.1 78.5 226 L 151.5 226 L 153 224.5 L 153 190 Z " />
<!-- Masked dark charcoal grid lines on top -->
<path fill="#3D3D3D" stroke="#3D3D3D" stroke-width="1" opacity="1" mask="url(#grid-mask)" d="M 153 190 Q 156.9 189.5 157 190.5 L 157 216.5 Q 155 217.5 157 218.5 Q 157.7 222.7 156 224.5 L 157.5 226 L 205 226 L 205 190.5 Q 205.1 189.5 209 190 L 209 225.5 L 209.5 226 L 324 226 L 324 190.5 Q 324.1 189.5 328 190 L 328 225.5 L 328.5 226 L 451.5 226 Q 452.3 225.8 452 228.5 L 450.5 230 L 332.5 230 L 331 229.5 Q 330.3 231.8 332.5 231 L 400.5 302 L 586.5 302 Q 587.3 301.8 587 304.5 L 585.5 306 L 405 306.5 L 497.5 403 L 812.5 403 Q 813.5 403.1 813 407 L 227.5 407 L 209 425.5 L 209 675 L 405.5 675 Q 406.5 675.1 406 679 L 389 679 L 389 728 L 958.5 728 Q 959.5 728.1 959 732 L 389.5 732 L 389 732.5 L 389 789.5 Q 388.9 790.5 385 790 L 385 732.5 L 384.5 732 L 209 732 L 209 789.5 Q 208.9 790.5 205 790 L 205 732 L 157 732 L 157 789.5 Q 156.9 790.5 153 790 L 153 732 L 78.5 732 Q 77.5 731.9 78 728 L 151.5 728 L 153 726.5 L 153 679 L 78.5 679 Q 77.5 678.9 78 675 L 153 675 L 153 483.5 L 151.5 482 L 78 481.5 L 150 407.5 L 78 407 Q 77.5 403.1 78.5 403 L 151.5 403 L 153 401.5 L 153 306.5 Q 151.8 303.8 150.5 306 L 78.5 306 Q 77.5 305.9 78 302 L 151.5 302 L 153 300.5 L 153 230.5 L 151.5 229 L 150.5 230 L 78 230 Q 77.5 226.1 78.5 226 L 151.5 226 L 153 224.5 L 153 190 Z " />
<!-- Inner orange house fills (diagonal roof accent only) -->
<path fill="#F7921C" stroke="#F7921C" stroke-width="1" opacity="1" d="M 333 305 L 332 307 L 421 399 L 426 403 L 491 403 Q 492 400 490 401 L 412 320 L 399 306 L 337 306 L 335 305 Q 334 307 333 305 Z M 209 306 L 210 346 L 248 307 L 209 306 Z M 324 307 L 253 380 Q 254 382 251 381 L 251 383 L 232 402 L 233 403 L 324 403 L 324 307 Z M 328 309 L 328 403 L 419 403 L 419 402 L 401 383 L 396 377 L 394 377 L 394 376 Q 364 347 336 316 L 330 309 L 328 309 Z " />
<!-- GRIHA text - dark charcoal -->
<path fill="#3D3D3D" stroke="#3D3D3D" stroke-width="1" opacity="1" d="M 461.5 413 L 475.5 413 L 476.5 414 L 480.5 414 L 486.5 416 Q 493.6 419.4 498 425.5 L 501 432.5 L 501 438.5 Q 503 439.6 502 443 L 485.5 443 Q 484.5 443 485 438.5 L 484 435.5 L 479.5 431 L 471.5 428 L 464.5 428 Q 463.5 430 459.5 429 L 453 433.5 L 451 436.5 Q 452.2 441.2 450 442.5 L 450 533.5 Q 452.2 534.8 451 539.5 L 455.5 545 L 462.5 548 L 474.5 548 L 480.5 545 L 483 542.5 L 485 537.5 L 485 497 L 470.5 497 L 469.5 498 L 468 496.5 L 468 486.5 L 469 484.5 Q 466.7 483.3 469.5 482 L 502 482 L 502 539.5 L 498 551.5 L 492.5 557 L 485.5 561 L 479.5 562 L 478.5 563 L 458.5 563 L 446.5 559 L 438 551.5 L 434 541.5 L 434 433.5 L 437 426.5 L 441.5 421 L 449.5 416 L 455.5 414 L 460.5 414 L 461.5 413 Z " />
<path fill="#3D3D3D" stroke="#3D3D3D" stroke-width="1" opacity="1" d="M 549.5 413 L 560.5 413 L 561.5 414 L 567.5 414 Q 568.3 415.8 571.5 415 Q 578.4 417.6 583 422.5 L 588 432.5 L 588 439.5 L 589 440.5 L 589 468.5 L 588 469.5 L 588 476.5 L 587 479.5 L 580.5 488 L 573 492.5 L 573 495.5 L 575 501.5 L 577 504.5 L 585 530.5 L 587 533.5 L 592 550.5 L 596 559.5 L 596 562 L 578.5 562 L 578 560.5 L 575 551.5 L 573 548.5 L 557 499 L 553.5 499 L 550.5 501 L 545.5 502 L 542.5 504 L 538 505 L 538 561.5 L 537.5 562 L 521 562 L 521 435.5 L 524 426.5 L 528.5 421 L 536.5 416 L 542.5 414 L 548.5 414 L 549.5 413 Z M 548 429 L 542 432 L 538 438 L 538 488 L 543 487 L 546 485 L 551 484 L 554 482 L 559 481 L 562 479 L 564 479 L 568 476 L 569 476 L 572 469 L 572 440 L 570 435 L 566 430 L 563 429 L 548 429 Z " />
<path fill="#3D3D3D" stroke="#3D3D3D" stroke-width="1" opacity="1" d="M 763.5 413 L 776.5 413 Q 777.8 415.3 782.5 414 L 790.5 417 L 798 423.5 L 802 430.5 Q 801 434.5 803 435.5 L 803 562 L 786.5 562 L 786 561.5 L 786 493.5 Q 786.3 492.8 783.5 493 L 773.5 498 L 762.5 501 L 752 506.5 L 753 509.5 L 753 560.5 L 751.5 562 L 736 562 L 736 433.5 L 739 425.5 L 745.5 419 L 753.5 415 L 762.5 414 L 763.5 413 Z M 767 428 L 758 431 L 754 435 Q 752 436 753 441 L 752 442 Q 751 446 753 448 L 753 487 L 753 488 L 777 480 L 783 477 L 786 474 L 786 438 L 784 434 L 778 429 L 767 428 Z " />
<path fill="#3D3D3D" stroke="#3D3D3D" stroke-width="1" opacity="1" d="M 609 414 L 625.5 414 L 626 414.5 L 626 562 L 609.5 562 L 609 561.5 L 609 414 Z " />
<path fill="#3D3D3D" stroke="#3D3D3D" stroke-width="1" opacity="1" d="M 645 414 L 661.5 414 L 662 414.5 L 662 479 L 700 479 L 700 414.5 L 700.5 414 L 715.5 414 L 717 415.5 L 717 562 L 700.5 562 L 700 561.5 L 700 495 L 662 495 L 662 561.5 L 661.5 562 L 645 562 L 645 414 Z " />
<!-- Window grid squares - dark charcoal to match reference -->
<path fill="#3D3D3D" stroke="#3D3D3D" stroke-width="1" opacity="1" d="M 279.5 493 L 319 493 L 319 534 L 278 534 L 278 494.5 L 279.5 493 Z " />
<path fill="#3D3D3D" stroke="#3D3D3D" stroke-width="1" opacity="1" d="M 336.5 493 L 376 493 L 376 534 L 335 534 L 335 494.5 L 336.5 493 Z " />
<path fill="#3D3D3D" stroke="#3D3D3D" stroke-width="1" opacity="1" d="M 278 551 L 319 551 L 319 592 L 278 592 L 278 551 Z " />
<path fill="#3D3D3D" stroke="#3D3D3D" stroke-width="1" opacity="1" d="M 335 551 L 376 551 L 376 592 L 336.5 592 L 335 590.5 L 335 551 Z " />
<!-- SANSAR text - teal -->
<path fill="#1A6B7A" stroke="#1A6B7A" stroke-width="1" opacity="1" d="M 464.5 571 L 473.5 571 L 474.5 572 L 480.5 572 L 486.5 574 Q 494 577 498 583.5 L 502 593.5 L 502 601 L 485 601 L 485 595.5 L 479.5 589 L 475.5 587 Q 470.7 587.8 468.5 586 L 467.5 587 L 460.5 587 Q 455.7 588.7 453 592.5 L 451 597.5 L 451 628.5 L 452 631.5 L 456.5 636 L 462.5 639 L 486.5 646 Q 493.9 648.6 498 654.5 L 500 657.5 L 501 663.5 L 502 664.5 L 502 700.5 L 499 708.5 L 491.5 716 L 488.5 718 L 482.5 720 L 479.5 720 L 478.5 721 L 458.5 721 L 445.5 716 L 438 708.5 L 435 701.5 L 434 690 L 451 690 L 451 696.5 L 455.5 703 L 462.5 706 L 474.5 706 L 479.5 704 L 484 699.5 L 485 697.5 L 485 668.5 L 484 665.5 L 480.5 662 L 471.5 658 L 449.5 651 L 443.5 648 L 438 642.5 L 435 635.5 L 435 591.5 L 438 584.5 L 442.5 579 L 450.5 574 L 456.5 573 L 457.5 572 L 463.5 572 L 464.5 571 Z " />
<path fill="#1A6B7A" stroke="#1A6B7A" stroke-width="1" opacity="1" d="M 552.5 571 L 559.5 571 L 560.5 572 L 566.5 572 Q 567.3 573.8 570.5 573 L 577.5 576 L 583 580.5 L 587 587.5 L 588 590.5 L 588 596.5 L 589 597.5 L 589 718.5 L 587.5 720 L 572 720 L 572 651.5 L 570.5 651 L 560.5 656 L 542.5 662 L 538 665.5 L 538 719.5 L 537.5 720 L 522.5 720 L 521 718.5 L 521 596.5 Q 523.3 595.3 522 590.5 L 525 583.5 L 531.5 577 L 539.5 573 Q 542.8 573.8 543.5 572 L 551.5 572 L 552.5 571 Z M 549 587 L 544 589 L 540 593 L 538 599 L 538 647 L 548 643 L 556 641 L 569 635 L 572 631 L 572 599 L 570 593 Q 567 589 563 587 L 549 587 Z " />
<path fill="#1A6B7A" stroke="#1A6B7A" stroke-width="1" opacity="1" d="M 637.5 571 L 646.5 571 L 647.5 572 L 653.5 572 L 663.5 576 L 670 581.5 L 674 588.5 Q 673.3 591.8 675 592.5 L 675 720 L 659.5 720 L 658 718.5 L 658 595.5 L 651.5 588 L 648.5 587 L 634.5 587 Q 629 589 626 593.5 L 625 596.5 L 625 720 L 608.5 720 L 608 719.5 L 608 594.5 L 609 593.5 L 609 589.5 L 611 584.5 L 618.5 577 L 626.5 573 Q 629.8 573.8 630.5 572 L 636.5 572 L 637.5 571 Z " />
<path fill="#1A6B7A" stroke="#1A6B7A" stroke-width="1" opacity="1" d="M 724.5 571 L 732.5 571 L 733.5 572 L 739.5 572 Q 740.3 573.8 743.5 573 L 755 579 L 755 580.5 L 758 583.5 L 761 589.5 Q 760.2 592.8 762 593.5 L 762 601 L 745 601 L 745 595.5 L 738.5 588 L 731.5 587 L 730.5 586 L 726.5 586 L 725.5 587 L 718.5 588 L 714 591.5 L 711 599.5 L 711 609.5 L 712 612.5 Q 710.2 613.3 711 616.5 L 712 617.5 L 712 630.5 L 716.5 636 L 725.5 640 L 731.5 641 L 735.5 643 L 738.5 643 L 741.5 645 L 744.5 645 L 747.5 647 L 749.5 647 L 759 655.5 L 759 657.5 L 761 660.5 L 761 664.5 L 762 665.5 L 762 699.5 L 758 709.5 L 751.5 716 L 739.5 721 L 718.5 721 L 707.5 717 L 699 709.5 L 695 701.5 L 694 690 L 711 690 L 711 695.5 L 712 698.5 L 717.5 704 L 722.5 706 L 734.5 706 L 739.5 704 L 744 699.5 L 745 697.5 L 745 668.5 L 744 665.5 L 740.5 662 L 734.5 659 L 707.5 650 L 702.5 647 L 698 642.5 L 695 634.5 L 695 592.5 L 699 583.5 L 705.5 577 L 713.5 573 Q 716.8 573.8 717.5 572 L 723.5 572 L 724.5 571 Z " />
<path fill="#1A6B7A" stroke="#1A6B7A" stroke-width="1" opacity="1" d="M 810.5 571 L 819.5 571 L 820.5 572 L 826.5 572 Q 827.3 573.8 830.5 573 L 838.5 577 L 843 581.5 L 847 588.5 Q 846.3 591.8 848 592.5 L 848 720 L 831.5 720 L 831 719.5 L 831 651.5 L 829.5 652 L 820.5 655 L 817.5 657 L 809.5 659 L 798 664 L 798 719.5 L 797.5 720 L 781 720 L 781 592.5 L 784 584.5 L 788.5 579 L 796.5 574 L 802.5 573 L 803.5 572 L 809.5 572 L 810.5 571 Z M 808 587 L 805 588 L 798 596 L 799 647 L 813 641 L 826 637 L 831 633 L 831 596 L 830 594 L 825 588 L 822 587 L 808 587 Z " />
<path fill="#1A6B7A" stroke="#1A6B7A" stroke-width="1" opacity="1" d="M 892.5 572 L 911.5 572 Q 912.5 574 916.5 573 L 923.5 576 L 930 581.5 L 935 592.5 L 935 632.5 L 931 642.5 L 927.5 646 L 919 651.5 L 923 665.5 L 925 668.5 L 935 700.5 L 937 703.5 L 942 720 L 924.5 720 L 923 718.5 L 903 657 L 900.5 657 L 884 664 L 884 719.5 L 883.5 720 L 868.5 720 Q 865.5 718.5 867 712.5 L 868 711.5 L 868 696.5 L 867 695.5 L 867 665.5 L 868 664.5 L 868 654.5 L 867 653.5 L 867 596.5 L 868 595.5 L 868 590.5 L 869 587.5 L 875.5 579 L 881.5 575 L 887.5 573 L 891.5 573 L 892.5 572 Z M 895 587 L 890 589 L 885 595 Q 886 598 884 599 L 885 647 L 913 636 L 917 632 L 918 629 L 918 597 L 917 594 Q 914 589 909 587 L 895 587 Z " />
</svg>